<?xml version="1.0" encoding="UTF-8"?>
<svg width="21px" height="21px" viewBox="0 0 21 21" version="1.1" xmlns="http://www.w3.org/2000/svg" xmlns:xlink="http://www.w3.org/1999/xlink">
    <!-- Generator: Sketch 54.1 (76490) - https://sketchapp.com -->
    <title>search 2</title>
    <desc>Created with Sketch.</desc>
    <g id="Dark-Theme" stroke="none" stroke-width="1" fill="none" fill-rule="evenodd">
        <g id="Login" transform="translate(-170.000000, -682.000000)">
            <g id="Group-6" transform="translate(28.000000, 620.000000)">
                <g id="Group-3" transform="translate(1.000000, 53.000000)">
                    <g id="search-2" transform="translate(141.000000, 9.000000)">
                        <g id="search">
                            <path d="M5,13.1591717 L4.21468229,15.9423552 L1.34436415,16 C0.486560324,14.4895629 0,12.7614307 0,10.9249948 C0,9.14917381 0.454922006,7.47454507 1.26130255,6 L1.26191945,6 L3.81730854,6.44476051 L4.93672336,8.85613888 C4.70243236,9.50458063 4.57473341,10.2006693 4.57473341,10.9249948 C4.57482154,11.7111065 4.72481713,12.4642962 5,13.1591717 Z" id="Path" fill="#FBBB00"></path>
                            <path d="M20.8213458,9 C20.9387711,9.62579305 21,10.2720741 21,10.9325795 C21,11.6732185 20.9230345,12.3956729 20.7764127,13.0925475 C20.2786733,15.4639419 18.9780886,17.5346437 17.1764095,19 L17.1758503,18.9994343 L14.2584315,18.8488253 L13.8455259,16.2409501 C15.041027,15.5315887 15.9753167,14.4214789 16.4674644,13.0925475 L11,13.0925475 L11,9 L16.5472257,9 L20.8213458,9 L20.8213458,9 Z" id="Path" fill="#518EF8"></path>
                            <path d="M16.9994193,18.4955255 L17,18.4961474 C15.1803722,20.0626879 12.8688712,21 10.3526408,21 C6.30902794,21 2.79341452,18.5792656 1,15.0168665 L4.44095521,12 C5.33764173,14.5632037 7.64619788,16.3878504 10.3526408,16.3878504 C11.51594,16.3878504 12.6057839,16.051024 13.5409609,15.4630216 L16.9994193,18.4955255 Z" id="Path" fill="#28B446"></path>
                            <path d="M17,2.56809203 L13.6044117,5.52660934 C12.6489892,4.89103532 11.5195967,4.52387869 10.3096269,4.52387869 C7.57749117,4.52387869 5.25598035,6.39569777 4.41515942,9 L1.00057321,6.02492447 L1,6.02492447 C2.74444956,2.44551766 6.25865193,0 10.3096269,0 C12.8528481,0 15.1847177,0.964123867 17,2.56809203 Z" id="Path" fill="#F14336"></path>
                        </g>
                    </g>
                </g>
            </g>
        </g>
    </g>
</svg>